<?xml version="1.0" standalone="no"?>
<!DOCTYPE svg PUBLIC "-//W3C//DTD SVG 20010904//EN"
 "http://www.w3.org/TR/2001/REC-SVG-20010904/DTD/svg10.dtd">
<svg version="1.0" xmlns="http://www.w3.org/2000/svg"
 width="677.000000pt" height="369.000000pt" viewBox="0 0 677.000000 369.000000"
 preserveAspectRatio="xMidYMid meet">

<g transform="translate(0.000000,369.000000) scale(0.100000,-0.100000)"
fill="#000000" stroke="none">
<path d="M1300 1841 l0 -1289 165 100 165 101 0 1092 0 1092 -97 58 c-54 32
-126 76 -160 97 -34 21 -65 38 -68 38 -3 0 -5 -580 -5 -1289z"/>
<path d="M563 2527 l-163 -101 0 -628 c0 -345 3 -628 6 -628 3 0 77 44 165 97
l158 98 1 633 c0 347 -1 632 -2 632 -2 -1 -76 -47 -165 -103z"/>
<path d="M1125 2487 c-28 -19 -101 -64 -162 -101 l-113 -68 0 -680 c0 -434 4
-678 10 -676 5 2 79 46 164 98 l155 95 1 683 c0 375 -1 682 -3 682 -1 0 -25
-15 -52 -33z"/>
<path d="M1750 1846 c0 -372 3 -676 6 -676 4 0 80 45 170 101 l164 101 -6 471
c-2 260 -8 475 -12 479 -4 3 -65 42 -137 85 -71 44 -142 87 -157 97 l-28 18 0
-676z"/>
<path d="M2550 1840 l0 -470 115 0 115 0 2 320 3 320 185 -197 c102 -108 236
-253 299 -320 l115 -123 133 0 133 0 0 470 0 470 -120 0 -120 0 -2 -316 -3
-317 -275 293 c-151 161 -284 304 -295 317 -20 22 -27 23 -153 23 l-132 0 0
-470z"/>
<path d="M3990 2301 c-46 -14 -87 -40 -113 -70 -48 -58 -52 -85 -52 -386 0
-318 5 -346 75 -409 69 -63 97 -66 527 -66 l383 0 0 100 0 100 -359 0 -360 0
-15 22 c-11 15 -16 45 -16 90 l0 68 324 0 324 0 4 83 c2 45 2 85 0 90 -2 4
-149 7 -328 7 l-324 0 0 75 c0 122 -23 115 392 115 l348 0 0 95 0 95 -392 -1
c-216 0 -404 -4 -418 -8z"/>
<path d="M4927 2288 c19 -22 121 -137 282 -317 41 -46 83 -94 93 -107 l19 -23
-138 -153 c-76 -85 -171 -190 -212 -236 l-73 -82 144 0 144 0 55 64 c30 34 90
106 134 159 44 53 85 95 90 93 6 -1 48 -48 95 -103 47 -55 108 -125 135 -157
l50 -57 142 3 141 3 -210 233 c-186 207 -208 235 -196 250 7 9 87 100 178 201
91 101 178 199 193 217 l28 34 -143 0 -143 0 -133 -155 c-73 -85 -136 -155
-140 -154 -4 0 -23 19 -42 43 -19 23 -78 93 -130 154 l-94 112 -145 0 -144 0
20 -22z"/>
<path d="M6140 1840 l0 -471 118 3 117 3 -2 365 c-2 201 -3 411 -3 468 l0 102
-115 0 -115 0 0 -470z"/>
</g>
</svg>
